<?xml version="1.0" standalone="no"?>
<!DOCTYPE svg PUBLIC "-//W3C//DTD SVG 20010904//EN"
 "http://www.w3.org/TR/2001/REC-SVG-20010904/DTD/svg10.dtd">
<svg version="1.0" xmlns="http://www.w3.org/2000/svg"
 width="324.000000pt" height="324.000000pt" viewBox="0 0 324.000000 324.000000"
 preserveAspectRatio="xMidYMid meet">
<metadata>
Created by potrace 1.11, written by Peter Selinger 2001-2013
</metadata>
<g transform="translate(0.000000,324.000000) scale(0.100000,-0.100000)"
fill="#000000" stroke="none">
<path d="M200 1595 l0 -325 1432 0 1431 0 -6 98 c-4 53 -7 199 -7 325 l0 227
-1425 0 -1425 0 0 -325z m2830 55 l0 -250 -1405 0 -1405 0 0 250 0 250 1405 0
1405 0 0 -250z"/>
<path d="M797 1723 c-4 -3 -7 -15 -7 -25 0 -33 -61 -167 -82 -182 -29 -21 -13
-36 37 -36 41 0 73 19 47 28 -7 2 -12 10 -12 18 0 10 12 14 39 14 41 0 63 -16
41 -30 -7 -4 -9 -13 -6 -19 10 -15 133 -14 142 1 4 6 2 14 -5 16 -6 2 -32 45
-57 95 -26 51 -53 100 -62 110 -15 17 -62 23 -75 10z m43 -112 c14 -28 13 -31
-15 -31 -26 0 -29 7 -19 34 8 21 21 20 34 -3z"/>
<path d="M1043 1719 c-41 -12 -49 -26 -29 -48 19 -21 23 -140 5 -158 -20 -20
1 -33 51 -33 50 0 71 13 51 33 -7 7 -11 52 -11 114 0 114 1 112 -67 92z"/>
<path d="M1163 1653 c-24 -5 -30 -18 -13 -28 6 -3 10 -25 10 -48 0 -23 6 -53
13 -67 12 -23 19 -25 87 -27 120 -3 119 -4 113 69 -7 98 -10 108 -38 108 -13
0 -36 -5 -50 -10 -22 -8 -25 -13 -15 -24 17 -21 9 -101 -10 -101 -12 0 -16 15
-18 68 -3 66 -3 67 -30 66 -15 -1 -37 -4 -49 -6z"/>
<path d="M1430 1649 c-24 -9 -26 -14 -25 -72 0 -34 -2 -69 -5 -77 -4 -12 5
-15 45 -15 l50 0 0 55 c0 44 3 55 18 58 14 3 17 -4 17 -35 0 -22 -5 -44 -12
-51 -20 -20 5 -34 53 -30 l44 3 -3 50 c-3 54 8 82 28 70 8 -5 11 -27 8 -64
l-3 -56 45 0 45 0 -3 65 c-2 36 -6 73 -8 82 -8 26 -52 34 -84 15 -25 -15 -29
-15 -40 -2 -16 19 -51 19 -76 0 -25 -19 -34 -19 -34 0 0 17 -22 18 -60 4z"/>
<path d="M1793 1649 c-37 -11 -50 -26 -34 -42 15 -15 14 -90 -1 -105 -16 -16
8 -24 63 -20 34 2 43 7 40 18 -3 8 -5 33 -5 55 -1 34 2 40 19 40 17 0 20 -6
19 -40 0 -22 -2 -47 -5 -55 -3 -12 7 -16 48 -18 l53 -3 -6 48 c-10 96 -15 113
-34 123 -27 14 -56 12 -70 -5 -7 -8 -16 -15 -21 -15 -5 0 -9 7 -9 15 0 17 -10
17 -57 4z"/>
<path d="M2050 1647 c-14 -7 -26 -23 -28 -35 -4 -28 8 -28 43 -1 21 17 29 19
35 9 13 -21 0 -40 -27 -40 -13 0 -35 -11 -48 -25 -22 -21 -23 -27 -14 -49 11
-24 16 -25 90 -24 91 1 109 12 90 54 -6 14 -11 40 -11 59 0 57 -67 84 -130 52z
m58 -109 c-6 -18 -28 -21 -28 -4 0 9 7 16 16 16 9 0 14 -5 12 -12z"/>
<path d="M2239 1638 c-29 -18 -30 -20 -15 -37 18 -20 23 -116 6 -126 -21 -13
-10 -45 18 -51 15 -3 33 -7 40 -10 7 -2 24 1 37 6 25 9 25 11 9 35 l-16 25 41
0 c31 0 48 6 66 25 32 31 34 91 5 128 -18 23 -27 25 -90 25 -50 -1 -78 -6
-101 -20z m116 -74 c0 -28 -4 -39 -15 -39 -17 0 -24 27 -16 62 10 37 31 22 31
-23z"/>
<path d="M2488 1637 c-29 -17 -31 -20 -15 -32 22 -16 24 -117 3 -138 -8 -7
-11 -19 -7 -26 10 -16 75 -31 101 -24 21 6 27 28 10 38 -21 13 -8 25 28 25 20
0 44 6 53 13 42 32 51 99 19 140 -18 23 -27 25 -90 25 -51 -1 -78 -6 -102 -21z
m120 -61 c4 -29 -14 -60 -29 -50 -11 6 -12 68 -2 78 13 13 28 -1 31 -28z"/>
</g>
</svg>
